<svg width="1609" height="234" viewBox="0 0 1609 234" fill="none" xmlns="http://www.w3.org/2000/svg">
<g id="Graphic Side">
<g clip-path="url(#clip0_7_106)">
<path d="M0 0H1609V218C1609 226.837 1601.84 234 1593 234H16C7.16347 234 0 226.837 0 218V0Z" fill="url(#paint0_radial_7_106)"/>
<g id="Big Circles">
<g id="Ellipse 5" style="mix-blend-mode:multiply" opacity="0.75" filter="url(#filter0_i_7_106)">
<ellipse cx="884" cy="823.307" rx="1056.31" ry="1078" transform="rotate(90 884 823.307)" fill="white"/>
</g>
<g id="Ellipse 4" style="mix-blend-mode:multiply" opacity="0.75" filter="url(#filter1_i_7_106)">
<ellipse cx="641.164" cy="823.307" rx="817.689" ry="835.164" transform="rotate(90 641.164 823.307)" fill="white"/>
</g>
<g id="Ellipse 3" style="mix-blend-mode:multiply" opacity="0.75" filter="url(#filter2_i_7_106)">
<ellipse cx="609.228" cy="901.642" rx="694.765" ry="709.226" transform="rotate(90 609.228 901.642)" fill="white"/>
</g>
</g>
<g id="Frame 35289">
<g id="Frame 35288">
<path id="Hello Samith !" d="M41.7784 92V62.9091H47.929V74.9119H60.4148V62.9091H66.5511V92H60.4148V79.983H47.929V92H41.7784ZM81.4517 92.4261C79.2074 92.4261 77.2756 91.9716 75.6562 91.0625C74.0464 90.1439 72.8059 88.8466 71.9347 87.1705C71.0634 85.4848 70.6278 83.4915 70.6278 81.1903C70.6278 78.946 71.0634 76.9763 71.9347 75.2812C72.8059 73.5862 74.0322 72.2652 75.6136 71.3182C77.2045 70.3712 79.0701 69.8977 81.2102 69.8977C82.6496 69.8977 83.9896 70.1297 85.2301 70.5938C86.4801 71.0483 87.5691 71.7348 88.4972 72.6534C89.4347 73.572 90.1638 74.7273 90.6847 76.1193C91.2055 77.5019 91.4659 79.1212 91.4659 80.9773V82.6392H73.0426V78.8892H85.7699C85.7699 78.018 85.5805 77.2462 85.2017 76.5739C84.8229 75.9015 84.2973 75.3759 83.625 74.9972C82.9621 74.6089 82.1903 74.4148 81.3097 74.4148C80.3911 74.4148 79.5767 74.6278 78.8665 75.054C78.1657 75.4706 77.6165 76.0341 77.2188 76.7443C76.821 77.4451 76.6174 78.2263 76.608 79.0881V82.6534C76.608 83.733 76.8068 84.6657 77.2045 85.4517C77.6117 86.2377 78.1847 86.8438 78.9233 87.2699C79.6619 87.696 80.5379 87.9091 81.5511 87.9091C82.2235 87.9091 82.839 87.8144 83.3977 87.625C83.9564 87.4356 84.4347 87.1515 84.8324 86.7727C85.2301 86.3939 85.5331 85.9299 85.7415 85.3807L91.3381 85.75C91.054 87.0947 90.4716 88.2689 89.5909 89.2727C88.7197 90.267 87.5928 91.0436 86.2102 91.6023C84.8371 92.1515 83.2509 92.4261 81.4517 92.4261ZM101.466 62.9091V92H95.4148V62.9091H101.466ZM112.364 62.9091V92H106.313V62.9091H112.364ZM127.07 92.4261C124.863 92.4261 122.955 91.9574 121.345 91.0199C119.745 90.0729 118.509 88.7566 117.638 87.071C116.767 85.3759 116.331 83.411 116.331 81.1761C116.331 78.9223 116.767 76.9527 117.638 75.267C118.509 73.572 119.745 72.2557 121.345 71.3182C122.955 70.3712 124.863 69.8977 127.07 69.8977C129.276 69.8977 131.179 70.3712 132.78 71.3182C134.39 72.2557 135.63 73.572 136.501 75.267C137.373 76.9527 137.808 78.9223 137.808 81.1761C137.808 83.411 137.373 85.3759 136.501 87.071C135.63 88.7566 134.39 90.0729 132.78 91.0199C131.179 91.9574 129.276 92.4261 127.07 92.4261ZM127.098 87.7386C128.102 87.7386 128.94 87.4545 129.612 86.8864C130.285 86.3087 130.791 85.5227 131.132 84.5284C131.482 83.5341 131.658 82.4025 131.658 81.1335C131.658 79.8646 131.482 78.733 131.132 77.7386C130.791 76.7443 130.285 75.9583 129.612 75.3807C128.94 74.803 128.102 74.5142 127.098 74.5142C126.085 74.5142 125.232 74.803 124.541 75.3807C123.859 75.9583 123.343 76.7443 122.993 77.7386C122.652 78.733 122.482 79.8646 122.482 81.1335C122.482 82.4025 122.652 83.5341 122.993 84.5284C123.343 85.5227 123.859 86.3087 124.541 86.8864C125.232 87.4545 126.085 87.7386 127.098 87.7386ZM168.018 70.1818C167.847 68.7424 167.156 67.625 165.944 66.8295C164.732 66.0341 163.245 65.6364 161.484 65.6364C160.196 65.6364 159.069 65.8447 158.103 66.2614C157.147 66.678 156.398 67.2509 155.859 67.9801C155.328 68.7093 155.063 69.5379 155.063 70.4659C155.063 71.2424 155.248 71.91 155.617 72.4688C155.996 73.018 156.479 73.4773 157.066 73.8466C157.653 74.2064 158.269 74.5047 158.913 74.7415C159.557 74.9687 160.148 75.1534 160.688 75.2955L163.643 76.0909C164.4 76.2898 165.243 76.5644 166.171 76.9148C167.109 77.2652 168.004 77.7434 168.856 78.3494C169.718 78.946 170.428 79.7131 170.987 80.6506C171.545 81.5881 171.825 82.7386 171.825 84.1023C171.825 85.6742 171.413 87.0947 170.589 88.3636C169.774 89.6326 168.581 90.6411 167.009 91.3892C165.447 92.1373 163.548 92.5114 161.313 92.5114C159.23 92.5114 157.426 92.1752 155.901 91.5028C154.386 90.8305 153.193 89.893 152.322 88.6903C151.46 87.4877 150.972 86.0909 150.859 84.5H154.495C154.59 85.5985 154.959 86.5076 155.603 87.2273C156.256 87.9375 157.08 88.4678 158.075 88.8182C159.078 89.1591 160.158 89.3295 161.313 89.3295C162.658 89.3295 163.865 89.1117 164.935 88.6761C166.005 88.2311 166.853 87.6155 167.478 86.8295C168.103 86.0341 168.415 85.1061 168.415 84.0455C168.415 83.0795 168.146 82.2936 167.606 81.6875C167.066 81.0814 166.356 80.589 165.475 80.2102C164.594 79.8314 163.643 79.5 162.62 79.2159L159.04 78.1932C156.768 77.5398 154.969 76.607 153.643 75.3949C152.317 74.1828 151.654 72.5966 151.654 70.6364C151.654 69.0076 152.094 67.5871 152.975 66.375C153.865 65.1534 155.058 64.2064 156.555 63.5341C158.06 62.8523 159.741 62.5114 161.597 62.5114C163.472 62.5114 165.139 62.8475 166.597 63.5199C168.056 64.1828 169.211 65.0919 170.063 66.2472C170.925 67.4025 171.379 68.714 171.427 70.1818H168.018ZM183.582 92.5114C182.2 92.5114 180.945 92.2509 179.818 91.7301C178.691 91.1998 177.796 90.4375 177.134 89.4432C176.471 88.4394 176.139 87.2273 176.139 85.8068C176.139 84.5568 176.385 83.5436 176.878 82.767C177.37 81.9811 178.028 81.3655 178.852 80.9205C179.676 80.4754 180.585 80.1439 181.58 79.9261C182.583 79.6989 183.592 79.5189 184.605 79.3864C185.931 79.2159 187.006 79.0881 187.83 79.0028C188.663 78.9081 189.269 78.7519 189.648 78.5341C190.036 78.3163 190.23 77.9375 190.23 77.3977V77.2841C190.23 75.8826 189.847 74.7936 189.08 74.017C188.322 73.2405 187.171 72.8523 185.628 72.8523C184.027 72.8523 182.773 73.2027 181.864 73.9034C180.955 74.6042 180.315 75.3523 179.946 76.1477L176.764 75.0114C177.332 73.6856 178.09 72.6534 179.037 71.9148C179.993 71.1667 181.035 70.6458 182.162 70.3523C183.298 70.0492 184.416 69.8977 185.514 69.8977C186.215 69.8977 187.02 69.983 187.929 70.1534C188.848 70.3144 189.733 70.6506 190.585 71.1619C191.447 71.6733 192.162 72.4451 192.73 73.4773C193.298 74.5095 193.582 75.892 193.582 77.625V92H190.23V89.0455H190.06C189.832 89.5189 189.454 90.0256 188.923 90.5653C188.393 91.1051 187.688 91.5644 186.807 91.9432C185.926 92.322 184.851 92.5114 183.582 92.5114ZM184.094 89.5C185.42 89.5 186.537 89.2396 187.446 88.7188C188.365 88.1979 189.056 87.5256 189.52 86.7017C189.993 85.8778 190.23 85.0114 190.23 84.1023V81.0341C190.088 81.2045 189.776 81.3608 189.293 81.5028C188.819 81.6354 188.27 81.7538 187.645 81.858C187.029 81.9527 186.428 82.0379 185.841 82.1136C185.263 82.1799 184.795 82.2367 184.435 82.2841C183.563 82.3977 182.749 82.5824 181.991 82.8381C181.243 83.0843 180.637 83.4583 180.173 83.9602C179.719 84.4527 179.491 85.125 179.491 85.9773C179.491 87.142 179.922 88.0227 180.784 88.6193C181.655 89.2064 182.759 89.5 184.094 89.5ZM199.701 92V70.1818H202.94V73.5909H203.224C203.678 72.4261 204.412 71.5218 205.425 70.8778C206.439 70.2244 207.656 69.8977 209.076 69.8977C210.515 69.8977 211.713 70.2244 212.67 70.8778C213.636 71.5218 214.388 72.4261 214.928 73.5909H215.156C215.714 72.464 216.552 71.5691 217.67 70.9062C218.787 70.2339 220.127 69.8977 221.69 69.8977C223.64 69.8977 225.236 70.5085 226.477 71.7301C227.717 72.9422 228.337 74.8314 228.337 77.3977V92H224.985V77.3977C224.985 75.7879 224.545 74.6373 223.664 73.946C222.783 73.2547 221.746 72.9091 220.553 72.9091C219.019 72.9091 217.831 73.3731 216.988 74.3011C216.145 75.2197 215.724 76.3845 215.724 77.7955V92H212.315V77.0568C212.315 75.8163 211.912 74.8172 211.107 74.0597C210.302 73.2926 209.265 72.9091 207.996 72.9091C207.125 72.9091 206.311 73.1411 205.553 73.6051C204.805 74.0691 204.199 74.7131 203.735 75.5369C203.281 76.3513 203.053 77.2936 203.053 78.3636V92H199.701ZM234.467 92V70.1818H237.819V92H234.467ZM236.171 66.5455C235.518 66.5455 234.954 66.3229 234.481 65.8778C234.017 65.4328 233.785 64.8977 233.785 64.2727C233.785 63.6477 234.017 63.1127 234.481 62.6676C234.954 62.2225 235.518 62 236.171 62C236.825 62 237.383 62.2225 237.847 62.6676C238.321 63.1127 238.558 63.6477 238.558 64.2727C238.558 64.8977 238.321 65.4328 237.847 65.8778C237.383 66.3229 236.825 66.5455 236.171 66.5455ZM253.447 70.1818V73.0227H242.141V70.1818H253.447ZM245.436 64.9545H248.788V85.75C248.788 86.697 248.926 87.4072 249.2 87.8807C249.484 88.3447 249.844 88.6572 250.28 88.8182C250.725 88.9697 251.194 89.0455 251.686 89.0455C252.055 89.0455 252.358 89.0265 252.595 88.9886C252.832 88.9413 253.021 88.9034 253.163 88.875L253.845 91.8864C253.618 91.9716 253.301 92.0568 252.893 92.142C252.486 92.2367 251.97 92.2841 251.345 92.2841C250.398 92.2841 249.47 92.0805 248.561 91.6733C247.661 91.2661 246.913 90.6458 246.317 89.8125C245.73 88.9792 245.436 87.928 245.436 86.6591V64.9545ZM262.311 78.875V92H258.959V62.9091H262.311V73.5909H262.595C263.107 72.464 263.874 71.5691 264.896 70.9062C265.929 70.2339 267.302 69.8977 269.016 69.8977C270.502 69.8977 271.804 70.196 272.922 70.7926C274.039 71.3797 274.906 72.2841 275.521 73.5057C276.146 74.7178 276.459 76.2614 276.459 78.1364V92H273.107V78.3636C273.107 76.6307 272.657 75.2907 271.757 74.3438C270.867 73.3873 269.631 72.9091 268.05 72.9091C266.951 72.9091 265.966 73.1411 265.095 73.6051C264.233 74.0691 263.552 74.7462 263.05 75.6364C262.557 76.5265 262.311 77.6061 262.311 78.875ZM298.426 62.9091L297.872 83.2784H292.673L292.105 62.9091H298.426ZM295.273 92.3693C294.335 92.3693 293.53 92.0379 292.858 91.375C292.186 90.7027 291.854 89.8977 291.864 88.9602C291.854 88.0322 292.186 87.2367 292.858 86.5739C293.53 85.911 294.335 85.5795 295.273 85.5795C296.172 85.5795 296.963 85.911 297.645 86.5739C298.327 87.2367 298.672 88.0322 298.682 88.9602C298.672 89.5852 298.507 90.1581 298.185 90.679C297.872 91.1903 297.46 91.6023 296.949 91.9148C296.438 92.2178 295.879 92.3693 295.273 92.3693Z" fill="white"/>
</g>
</g>
</g>
</g>
<defs>
<filter id="filter0_i_7_106" x="-194" y="-233" width="2180" height="2144.61" filterUnits="userSpaceOnUse" color-interpolation-filters="sRGB">
<feFlood flood-opacity="0" result="BackgroundImageFix"/>
<feBlend mode="normal" in="SourceGraphic" in2="BackgroundImageFix" result="shape"/>
<feColorMatrix in="SourceAlpha" type="matrix" values="0 0 0 0 0 0 0 0 0 0 0 0 0 0 0 0 0 0 127 0" result="hardAlpha"/>
<feMorphology radius="24" operator="erode" in="SourceAlpha" result="effect1_innerShadow_7_106"/>
<feOffset dx="24" dy="32"/>
<feGaussianBlur stdDeviation="92"/>
<feComposite in2="hardAlpha" operator="arithmetic" k2="-1" k3="1"/>
<feColorMatrix type="matrix" values="0 0 0 0 0.0235294 0 0 0 0 0.0313726 0 0 0 0 0.34902 0 0 0 0.75 0"/>
<feBlend mode="normal" in2="shape" result="effect1_innerShadow_7_106"/>
</filter>
<filter id="filter1_i_7_106" x="-194" y="5.61829" width="1694.33" height="1667.38" filterUnits="userSpaceOnUse" color-interpolation-filters="sRGB">
<feFlood flood-opacity="0" result="BackgroundImageFix"/>
<feBlend mode="normal" in="SourceGraphic" in2="BackgroundImageFix" result="shape"/>
<feColorMatrix in="SourceAlpha" type="matrix" values="0 0 0 0 0 0 0 0 0 0 0 0 0 0 0 0 0 0 127 0" result="hardAlpha"/>
<feMorphology radius="24" operator="erode" in="SourceAlpha" result="effect1_innerShadow_7_106"/>
<feOffset dx="24" dy="32"/>
<feGaussianBlur stdDeviation="92"/>
<feComposite in2="hardAlpha" operator="arithmetic" k2="-1" k3="1"/>
<feColorMatrix type="matrix" values="0 0 0 0 0.0235294 0 0 0 0 0.0313726 0 0 0 0 0.34902 0 0 0 0.75 0"/>
<feBlend mode="normal" in2="shape" result="effect1_innerShadow_7_106"/>
</filter>
<filter id="filter2_i_7_106" x="-99.9987" y="206.877" width="1442.45" height="1421.53" filterUnits="userSpaceOnUse" color-interpolation-filters="sRGB">
<feFlood flood-opacity="0" result="BackgroundImageFix"/>
<feBlend mode="normal" in="SourceGraphic" in2="BackgroundImageFix" result="shape"/>
<feColorMatrix in="SourceAlpha" type="matrix" values="0 0 0 0 0 0 0 0 0 0 0 0 0 0 0 0 0 0 127 0" result="hardAlpha"/>
<feMorphology radius="24" operator="erode" in="SourceAlpha" result="effect1_innerShadow_7_106"/>
<feOffset dx="24" dy="32"/>
<feGaussianBlur stdDeviation="92"/>
<feComposite in2="hardAlpha" operator="arithmetic" k2="-1" k3="1"/>
<feColorMatrix type="matrix" values="0 0 0 0 0.0235294 0 0 0 0 0.0313726 0 0 0 0 0.34902 0 0 0 0.75 0"/>
<feBlend mode="normal" in2="shape" result="effect1_innerShadow_7_106"/>
</filter>
<radialGradient id="paint0_radial_7_106" cx="0" cy="0" r="1" gradientUnits="userSpaceOnUse" gradientTransform="translate(804.5 117) rotate(90) scale(353.167 583.818)">
<stop stop-color="#56C364"/>
<stop offset="1" stop-color="#0D621F"/>
</radialGradient>
<clipPath id="clip0_7_106">
<path d="M0 0H1609V218C1609 226.837 1601.84 234 1593 234H16C7.16347 234 0 226.837 0 218V0Z" fill="white"/>
</clipPath>
</defs>
</svg>
